<svg width="109" height="84" viewBox="0 0 109 84" fill="none" xmlns="http://www.w3.org/2000/svg">
<path d="M56.0625 43.0871C58.7097 40.8049 60.833 37.9823 62.2883 34.8107C63.7435 31.6391 64.4967 28.1929 64.4967 24.7059C64.4967 18.1535 61.8831 11.8694 57.231 7.23619C52.5789 2.60293 46.2693 8.84031e-07 39.6903 8.84031e-07C33.1112 8.84031e-07 26.8016 2.60293 22.1495 7.23619C17.4974 11.8694 14.8838 18.1535 14.8838 24.7059C14.8838 28.1929 15.637 31.6391 17.0922 34.8107C18.5475 37.9823 20.6708 40.8049 23.318 43.0871C16.3729 46.2192 10.4805 51.2772 6.34538 57.6563C2.21023 64.0355 0.00730229 71.4658 0 79.0588C0 80.3693 0.522705 81.6261 1.45313 82.5528C2.38355 83.4794 3.64547 84 4.96128 84C6.2771 84 7.53902 83.4794 8.46944 82.5528C9.39986 81.6261 9.92256 80.3693 9.92256 79.0588C9.92256 71.1959 13.0588 63.6551 18.6413 58.0952C24.2238 52.5353 31.7954 49.4118 39.6903 49.4118C47.5851 49.4118 55.1567 52.5353 60.7392 58.0952C66.3217 63.6551 69.4579 71.1959 69.4579 79.0588C69.4579 80.3693 69.9807 81.6261 70.9111 82.5528C71.8415 83.4794 73.1034 84 74.4192 84C75.735 84 76.997 83.4794 77.9274 82.5528C78.8578 81.6261 79.3805 80.3693 79.3805 79.0588C79.3732 71.4658 77.1703 64.0355 73.0351 57.6563C68.9 51.2772 63.0076 46.2192 56.0625 43.0871ZM39.6903 39.5294C36.7465 39.5294 33.8689 38.66 31.4212 37.0312C28.9736 35.4024 27.0659 33.0872 25.9394 30.3786C24.8129 27.67 24.5181 24.6894 25.0924 21.814C25.6667 18.9385 27.0842 16.2972 29.1658 14.2241C31.2473 12.151 33.8994 10.7392 36.7866 10.1672C39.6737 9.59521 42.6664 9.88877 45.3861 11.0107C48.1057 12.1327 50.4303 14.0327 52.0657 16.4704C53.7012 18.9081 54.5741 21.7741 54.5741 24.7059C54.5741 28.6373 53.006 32.4077 50.2147 35.1877C47.4235 37.9677 43.6377 39.5294 39.6903 39.5294ZM88.0131 41.1106C91.1882 37.5496 93.2622 33.1506 93.9855 28.4431C94.7089 23.7355 94.0507 18.9201 92.0902 14.5765C90.1297 10.2328 86.9504 6.54605 82.9351 3.95997C78.9198 1.37389 74.2397 -0.00127285 69.4579 8.84031e-07C68.1421 8.84031e-07 66.8802 0.520587 65.9498 1.44724C65.0194 2.37389 64.4967 3.6307 64.4967 4.94118C64.4967 6.25166 65.0194 7.50847 65.9498 8.43512C66.8802 9.36177 68.1421 9.88235 69.4579 9.88235C73.4054 9.88235 77.1912 11.4441 79.9824 14.2241C82.7737 17.004 84.3418 20.7744 84.3418 24.7059C84.3348 27.3012 83.6437 29.8492 82.3377 32.095C81.0318 34.3409 79.1566 36.2059 76.8999 37.5035C76.1643 37.9261 75.55 38.5296 75.1156 39.2564C74.6813 39.9831 74.4415 40.8087 74.4192 41.6541C74.3985 42.4929 74.5925 43.3232 74.9831 44.0667C75.3737 44.8101 75.948 45.4423 76.6518 45.9035L78.5867 47.1882L79.2317 47.5341C85.212 50.3591 90.2572 54.8272 93.7731 60.4124C97.289 65.9975 99.1291 72.467 99.0768 79.0588C99.0768 80.3693 99.5995 81.6261 100.53 82.5528C101.46 83.4794 102.722 84 104.038 84C105.354 84 106.616 83.4794 107.546 82.5528C108.477 81.6261 108.999 80.3693 108.999 79.0588C109.04 71.4762 107.133 64.0092 103.46 57.3674C99.7868 50.7255 94.4695 45.1293 88.0131 41.1106Z" fill="#191919"/>
</svg>
